<svg width="56" height="44" viewBox="0 0 56 44" fill="none" xmlns="http://www.w3.org/2000/svg">
<path d="M12.8947 2.25694C14.4912 0.766119 16.0877 0.0207053 17.6842 0.0207053C19.2807 -0.103528 20.5702 0.331297 21.5526 1.32518C22.5351 2.19482 23.0263 3.43718 23.0263 5.05224C23.0263 6.54306 22.2281 8.03388 20.6316 9.5247C17.9298 12.3821 15.9035 14.9911 14.5526 17.3515C13.3246 19.712 12.4035 22.3831 11.7895 25.3647L10.5 20.5195C14.1842 20.5195 17.1316 21.5755 19.3421 23.6875C21.6754 25.7995 22.8421 28.6569 22.8421 32.2598C22.8421 35.7384 21.7982 38.5958 19.7105 40.832C17.7456 42.944 14.9211 44 11.2368 44C7.67544 44 4.91228 42.8198 2.94737 40.4593C0.982456 38.0988 0 34.9308 0 30.9553C0 27.3525 0.491228 23.8739 1.47368 20.5195C2.45614 17.1652 3.86842 13.9972 5.71053 11.0155C7.67544 7.90965 10.0702 4.99012 12.8947 2.25694ZM45.8684 2.25694C47.4649 0.766119 49.0614 0.0207053 50.6579 0.0207053C52.2544 -0.103528 53.5439 0.331297 54.5263 1.32518C55.5088 2.19482 56 3.43718 56 5.05224C56 6.54306 55.2018 8.03388 53.6053 9.5247C50.9035 12.3821 48.8772 14.9911 47.5263 17.3515C46.2983 19.712 45.3772 22.3831 44.7632 25.3647L43.4737 20.5195C47.1579 20.5195 50.1053 21.5755 52.3158 23.6875C54.6491 25.7995 55.8158 28.6569 55.8158 32.2598C55.8158 35.7384 54.7719 38.5958 52.6842 40.832C50.7193 42.944 47.8947 44 44.2105 44C40.6491 44 37.886 42.8198 35.9211 40.4593C33.9561 38.0988 32.9737 34.9308 32.9737 30.9553C32.9737 27.3525 33.4649 23.8739 34.4474 20.5195C35.4298 17.1652 36.8421 13.9972 38.6842 11.0155C40.6491 7.90965 43.0439 4.99012 45.8684 2.25694Z" fill="white"/>
</svg>
