<svg width="16" height="15" viewBox="0 0 16 15" fill="none" xmlns="http://www.w3.org/2000/svg">
<path d="M12 0.833374L14.6666 3.50004M1.33331 14.1667L2.18425 11.0466C2.23976 10.8431 2.26752 10.7413 2.31013 10.6464C2.34797 10.5621 2.39446 10.482 2.44886 10.4073C2.51012 10.3232 2.58472 10.2486 2.73392 10.0994L9.62286 3.2105C9.75486 3.07849 9.82086 3.01249 9.89697 2.98776C9.96392 2.96601 10.036 2.96601 10.103 2.98776C10.1791 3.01249 10.2451 3.07849 10.3771 3.2105L12.2895 5.12292C12.4215 5.25492 12.4875 5.32093 12.5123 5.39704C12.534 5.46398 12.534 5.5361 12.5123 5.60305C12.4875 5.67916 12.4215 5.74516 12.2895 5.87716L5.40058 12.7661C5.25139 12.9153 5.17679 12.9899 5.0927 13.0512C5.01804 13.1056 4.93793 13.1521 4.85366 13.1899C4.75874 13.2325 4.65696 13.2603 4.45341 13.3158L1.33331 14.1667Z" stroke="#4B5565" stroke-width="1.2" stroke-linecap="round" stroke-linejoin="round"/>
</svg>
