<svg width="22" height="22" viewBox="0 0 22 22" fill="none" xmlns="http://www.w3.org/2000/svg">
<path d="M9.50001 12.5L20 1.99999M9.62759 12.8281L12.2557 19.5861C12.4872 20.1814 12.603 20.4791 12.7698 20.566C12.9144 20.6413 13.0866 20.6414 13.2313 20.5663C13.3982 20.4795 13.5143 20.182 13.7466 19.5869L20.3369 2.69919C20.5465 2.16201 20.6514 1.89342 20.594 1.72179C20.5442 1.57274 20.4273 1.45577 20.2782 1.40598C20.1066 1.34864 19.838 1.45346 19.3008 1.66309L2.41307 8.25343C1.81799 8.48565 1.52045 8.60177 1.43375 8.76867C1.35858 8.91336 1.35868 9.08561 1.43402 9.23021C1.52092 9.39701 1.8186 9.51277 2.41394 9.7443L9.17194 12.3724C9.29279 12.4194 9.35322 12.4429 9.4041 12.4792C9.4492 12.5114 9.48863 12.5508 9.5208 12.5959C9.5571 12.6468 9.58059 12.7072 9.62759 12.8281Z" stroke="black" stroke-width="2" stroke-linecap="round" stroke-linejoin="round"/>
</svg>
